<mxfile host="app.diagrams.net" modified="2024-02-18T06:44:45.923Z" agent="Mozilla/5.0 (Windows NT 10.0; Win64; x64) AppleWebKit/537.36 (KHTML, like Gecko) Chrome/121.0.0.0 Safari/537.36" etag="SAzyFaC0zTy7kDJhDBXx" version="23.1.5" type="github">
  <diagram name="Page-1" id="oAad7EEsakEd4mtaNwob">
    <mxGraphModel dx="1985" dy="815" grid="1" gridSize="10" guides="1" tooltips="1" connect="1" arrows="1" fold="1" page="1" pageScale="1" pageWidth="850" pageHeight="1100" math="0" shadow="0">
      <root>
        <mxCell id="0" />
        <mxCell id="1" parent="0" />
        <mxCell id="zLXZKZK0PCTntUhZirlH-2" value="&lt;font style=&quot;font-size: 20px;&quot;&gt;&lt;b&gt;Name&lt;/b&gt;&lt;/font&gt;" style="ellipse;whiteSpace=wrap;html=1;" parent="1" vertex="1">
          <mxGeometry x="20" y="20" width="120" height="60" as="geometry" />
        </mxCell>
        <mxCell id="zLXZKZK0PCTntUhZirlH-6" value="&lt;b&gt;&lt;font style=&quot;font-size: 20px;&quot;&gt;Email&lt;/font&gt;&lt;/b&gt;" style="ellipse;whiteSpace=wrap;html=1;" parent="1" vertex="1">
          <mxGeometry x="160" y="20" width="120" height="60" as="geometry" />
        </mxCell>
        <mxCell id="zLXZKZK0PCTntUhZirlH-7" value="&lt;font style=&quot;font-size: 20px;&quot;&gt;&lt;b&gt;UserID&lt;/b&gt;&lt;/font&gt;" style="ellipse;whiteSpace=wrap;html=1;" parent="1" vertex="1">
          <mxGeometry x="305" y="20" width="120" height="60" as="geometry" />
        </mxCell>
        <mxCell id="zLXZKZK0PCTntUhZirlH-8" value="&lt;b&gt;&lt;font style=&quot;font-size: 20px;&quot;&gt;Password&lt;/font&gt;&lt;/b&gt;" style="ellipse;whiteSpace=wrap;html=1;" parent="1" vertex="1">
          <mxGeometry x="355" y="100" width="120" height="60" as="geometry" />
        </mxCell>
        <mxCell id="zLXZKZK0PCTntUhZirlH-17" style="rounded=0;orthogonalLoop=1;jettySize=auto;html=1;exitX=0;exitY=0;exitDx=0;exitDy=0;entryX=0.5;entryY=1;entryDx=0;entryDy=0;" parent="1" source="zLXZKZK0PCTntUhZirlH-16" target="zLXZKZK0PCTntUhZirlH-2" edge="1">
          <mxGeometry relative="1" as="geometry" />
        </mxCell>
        <mxCell id="zLXZKZK0PCTntUhZirlH-18" style="rounded=0;orthogonalLoop=1;jettySize=auto;html=1;exitX=0.5;exitY=0;exitDx=0;exitDy=0;entryX=0.5;entryY=1;entryDx=0;entryDy=0;" parent="1" source="zLXZKZK0PCTntUhZirlH-16" target="zLXZKZK0PCTntUhZirlH-6" edge="1">
          <mxGeometry relative="1" as="geometry" />
        </mxCell>
        <mxCell id="zLXZKZK0PCTntUhZirlH-19" style="rounded=0;orthogonalLoop=1;jettySize=auto;html=1;exitX=1;exitY=0;exitDx=0;exitDy=0;entryX=0.5;entryY=1;entryDx=0;entryDy=0;" parent="1" source="zLXZKZK0PCTntUhZirlH-16" target="zLXZKZK0PCTntUhZirlH-7" edge="1">
          <mxGeometry relative="1" as="geometry" />
        </mxCell>
        <mxCell id="zLXZKZK0PCTntUhZirlH-20" style="rounded=0;orthogonalLoop=1;jettySize=auto;html=1;exitX=1;exitY=0.5;exitDx=0;exitDy=0;entryX=0;entryY=0.5;entryDx=0;entryDy=0;" parent="1" source="zLXZKZK0PCTntUhZirlH-16" target="zLXZKZK0PCTntUhZirlH-8" edge="1">
          <mxGeometry relative="1" as="geometry" />
        </mxCell>
        <mxCell id="zLXZKZK0PCTntUhZirlH-16" value="&lt;font style=&quot;font-size: 20px;&quot;&gt;&lt;b&gt;SignUp&lt;/b&gt;&lt;/font&gt;" style="rounded=1;whiteSpace=wrap;html=1;" parent="1" vertex="1">
          <mxGeometry x="130" y="140" width="140" height="80" as="geometry" />
        </mxCell>
        <mxCell id="zLXZKZK0PCTntUhZirlH-26" style="rounded=0;orthogonalLoop=1;jettySize=auto;html=1;exitX=0.75;exitY=0;exitDx=0;exitDy=0;entryX=0.5;entryY=1;entryDx=0;entryDy=0;" parent="1" source="zLXZKZK0PCTntUhZirlH-22" target="zLXZKZK0PCTntUhZirlH-24" edge="1">
          <mxGeometry relative="1" as="geometry" />
        </mxCell>
        <mxCell id="zLXZKZK0PCTntUhZirlH-22" value="&lt;font style=&quot;font-size: 20px;&quot;&gt;&lt;b&gt;Login&lt;/b&gt;&lt;/font&gt;" style="rounded=1;whiteSpace=wrap;html=1;" parent="1" vertex="1">
          <mxGeometry x="590" y="130" width="140" height="80" as="geometry" />
        </mxCell>
        <mxCell id="zLXZKZK0PCTntUhZirlH-23" value="&lt;font style=&quot;font-size: 20px;&quot;&gt;&lt;b&gt;UserID&lt;/b&gt;&lt;/font&gt;" style="ellipse;whiteSpace=wrap;html=1;" parent="1" vertex="1">
          <mxGeometry x="520" y="20" width="120" height="60" as="geometry" />
        </mxCell>
        <mxCell id="zLXZKZK0PCTntUhZirlH-24" value="&lt;b&gt;&lt;font style=&quot;font-size: 20px;&quot;&gt;Password&lt;/font&gt;&lt;/b&gt;" style="ellipse;whiteSpace=wrap;html=1;" parent="1" vertex="1">
          <mxGeometry x="710" y="20" width="120" height="60" as="geometry" />
        </mxCell>
        <mxCell id="zLXZKZK0PCTntUhZirlH-25" style="rounded=0;orthogonalLoop=1;jettySize=auto;html=1;exitX=0.5;exitY=0;exitDx=0;exitDy=0;entryX=0.575;entryY=1.013;entryDx=0;entryDy=0;entryPerimeter=0;" parent="1" source="zLXZKZK0PCTntUhZirlH-22" target="zLXZKZK0PCTntUhZirlH-23" edge="1">
          <mxGeometry relative="1" as="geometry" />
        </mxCell>
        <mxCell id="zLXZKZK0PCTntUhZirlH-33" style="edgeStyle=orthogonalEdgeStyle;rounded=0;orthogonalLoop=1;jettySize=auto;html=1;exitX=0.5;exitY=1;exitDx=0;exitDy=0;entryX=0.5;entryY=0;entryDx=0;entryDy=0;" parent="1" source="zLXZKZK0PCTntUhZirlH-31" target="zLXZKZK0PCTntUhZirlH-32" edge="1">
          <mxGeometry relative="1" as="geometry" />
        </mxCell>
        <mxCell id="zLXZKZK0PCTntUhZirlH-31" value="&lt;font style=&quot;font-size: 20px;&quot;&gt;&lt;b&gt;Home&lt;/b&gt;&lt;/font&gt;" style="rounded=1;whiteSpace=wrap;html=1;" parent="1" vertex="1">
          <mxGeometry x="415" y="260" width="140" height="80" as="geometry" />
        </mxCell>
        <mxCell id="zLXZKZK0PCTntUhZirlH-32" value="&lt;font style=&quot;font-size: 15px;&quot;&gt;Contains&lt;/font&gt;" style="rhombus;whiteSpace=wrap;html=1;" parent="1" vertex="1">
          <mxGeometry x="445" y="370" width="80" height="80" as="geometry" />
        </mxCell>
        <mxCell id="zLXZKZK0PCTntUhZirlH-34" style="edgeStyle=orthogonalEdgeStyle;rounded=0;orthogonalLoop=1;jettySize=auto;html=1;exitX=0.5;exitY=1;exitDx=0;exitDy=0;entryX=0.05;entryY=-0.012;entryDx=0;entryDy=0;entryPerimeter=0;" parent="1" source="zLXZKZK0PCTntUhZirlH-16" target="zLXZKZK0PCTntUhZirlH-31" edge="1">
          <mxGeometry relative="1" as="geometry" />
        </mxCell>
        <mxCell id="zLXZKZK0PCTntUhZirlH-35" style="edgeStyle=orthogonalEdgeStyle;rounded=0;orthogonalLoop=1;jettySize=auto;html=1;exitX=0.5;exitY=1;exitDx=0;exitDy=0;entryX=0.943;entryY=-0.05;entryDx=0;entryDy=0;entryPerimeter=0;" parent="1" source="zLXZKZK0PCTntUhZirlH-22" target="zLXZKZK0PCTntUhZirlH-31" edge="1">
          <mxGeometry relative="1" as="geometry" />
        </mxCell>
        <mxCell id="zLXZKZK0PCTntUhZirlH-43" style="rounded=0;orthogonalLoop=1;jettySize=auto;html=1;exitX=0;exitY=0.75;exitDx=0;exitDy=0;" parent="1" source="zLXZKZK0PCTntUhZirlH-37" target="zLXZKZK0PCTntUhZirlH-40" edge="1">
          <mxGeometry relative="1" as="geometry">
            <mxPoint x="290" y="560" as="sourcePoint" />
            <Array as="points" />
          </mxGeometry>
        </mxCell>
        <mxCell id="zLXZKZK0PCTntUhZirlH-49" style="rounded=0;orthogonalLoop=1;jettySize=auto;html=1;exitX=0;exitY=0.5;exitDx=0;exitDy=0;entryX=1;entryY=0.5;entryDx=0;entryDy=0;" parent="1" source="zLXZKZK0PCTntUhZirlH-37" target="zLXZKZK0PCTntUhZirlH-47" edge="1">
          <mxGeometry relative="1" as="geometry" />
        </mxCell>
        <mxCell id="zLXZKZK0PCTntUhZirlH-55" style="edgeStyle=orthogonalEdgeStyle;rounded=0;orthogonalLoop=1;jettySize=auto;html=1;exitX=0.5;exitY=1;exitDx=0;exitDy=0;entryX=0.5;entryY=0;entryDx=0;entryDy=0;" parent="1" source="zLXZKZK0PCTntUhZirlH-37" target="zLXZKZK0PCTntUhZirlH-54" edge="1">
          <mxGeometry relative="1" as="geometry">
            <mxPoint x="430" y="700" as="targetPoint" />
          </mxGeometry>
        </mxCell>
        <mxCell id="zLXZKZK0PCTntUhZirlH-37" value="&lt;span style=&quot;font-size: 20px;&quot;&gt;&lt;b&gt;Art/Products&lt;/b&gt;&lt;/span&gt;" style="rounded=1;whiteSpace=wrap;html=1;" parent="1" vertex="1">
          <mxGeometry x="425" y="480" width="140" height="80" as="geometry" />
        </mxCell>
        <mxCell id="zLXZKZK0PCTntUhZirlH-39" style="edgeStyle=orthogonalEdgeStyle;rounded=0;orthogonalLoop=1;jettySize=auto;html=1;exitX=0.5;exitY=1;exitDx=0;exitDy=0;entryX=0.457;entryY=-0.025;entryDx=0;entryDy=0;entryPerimeter=0;" parent="1" source="zLXZKZK0PCTntUhZirlH-32" target="zLXZKZK0PCTntUhZirlH-37" edge="1">
          <mxGeometry relative="1" as="geometry" />
        </mxCell>
        <mxCell id="zLXZKZK0PCTntUhZirlH-40" value="&lt;b&gt;&lt;font style=&quot;font-size: 20px;&quot;&gt;Art id&lt;/font&gt;&lt;/b&gt;" style="ellipse;whiteSpace=wrap;html=1;" parent="1" vertex="1">
          <mxGeometry x="20" y="470" width="120" height="70" as="geometry" />
        </mxCell>
        <mxCell id="zLXZKZK0PCTntUhZirlH-41" value="&lt;b&gt;&lt;font style=&quot;font-size: 20px;&quot;&gt;Art Name&lt;/font&gt;&lt;/b&gt;" style="ellipse;whiteSpace=wrap;html=1;" parent="1" vertex="1">
          <mxGeometry x="10" y="650" width="120" height="70" as="geometry" />
        </mxCell>
        <mxCell id="zLXZKZK0PCTntUhZirlH-42" value="&lt;b&gt;&lt;font style=&quot;font-size: 20px;&quot;&gt;Art Category&lt;/font&gt;&lt;/b&gt;" style="ellipse;whiteSpace=wrap;html=1;" parent="1" vertex="1">
          <mxGeometry x="10" y="550" width="120" height="80" as="geometry" />
        </mxCell>
        <mxCell id="zLXZKZK0PCTntUhZirlH-45" style="rounded=0;orthogonalLoop=1;jettySize=auto;html=1;exitX=0;exitY=0.75;exitDx=0;exitDy=0;entryX=1;entryY=0.5;entryDx=0;entryDy=0;" parent="1" source="zLXZKZK0PCTntUhZirlH-37" target="zLXZKZK0PCTntUhZirlH-42" edge="1">
          <mxGeometry relative="1" as="geometry" />
        </mxCell>
        <mxCell id="zLXZKZK0PCTntUhZirlH-46" value="&lt;b&gt;&lt;font style=&quot;font-size: 20px;&quot;&gt;Art Images&lt;/font&gt;&lt;/b&gt;" style="ellipse;whiteSpace=wrap;html=1;" parent="1" vertex="1">
          <mxGeometry x="185" y="290" width="120" height="70" as="geometry" />
        </mxCell>
        <mxCell id="zLXZKZK0PCTntUhZirlH-47" value="&lt;b&gt;&lt;font style=&quot;font-size: 20px;&quot;&gt;Price&lt;/font&gt;&lt;/b&gt;" style="ellipse;whiteSpace=wrap;html=1;" parent="1" vertex="1">
          <mxGeometry x="30" y="290" width="120" height="70" as="geometry" />
        </mxCell>
        <mxCell id="zLXZKZK0PCTntUhZirlH-48" style="rounded=0;orthogonalLoop=1;jettySize=auto;html=1;exitX=0;exitY=0;exitDx=0;exitDy=0;entryX=0.5;entryY=1;entryDx=0;entryDy=0;" parent="1" source="zLXZKZK0PCTntUhZirlH-37" target="zLXZKZK0PCTntUhZirlH-46" edge="1">
          <mxGeometry relative="1" as="geometry" />
        </mxCell>
        <mxCell id="zLXZKZK0PCTntUhZirlH-50" value="&lt;b&gt;&lt;font style=&quot;font-size: 20px;&quot;&gt;Artist Name&lt;/font&gt;&lt;/b&gt;" style="ellipse;whiteSpace=wrap;html=1;" parent="1" vertex="1">
          <mxGeometry x="20" y="390" width="120" height="70" as="geometry" />
        </mxCell>
        <mxCell id="zLXZKZK0PCTntUhZirlH-58" style="rounded=0;orthogonalLoop=1;jettySize=auto;html=1;exitX=0.5;exitY=1;exitDx=0;exitDy=0;entryX=0;entryY=0.5;entryDx=0;entryDy=0;" parent="1" source="zLXZKZK0PCTntUhZirlH-54" edge="1">
          <mxGeometry relative="1" as="geometry">
            <mxPoint x="500" y="830" as="targetPoint" />
          </mxGeometry>
        </mxCell>
        <mxCell id="zLXZKZK0PCTntUhZirlH-54" value="&lt;font style=&quot;font-size: 20px;&quot;&gt;Has&lt;/font&gt;" style="rhombus;whiteSpace=wrap;html=1;" parent="1" vertex="1">
          <mxGeometry x="435" y="601" width="120" height="100" as="geometry" />
        </mxCell>
        <mxCell id="zLXZKZK0PCTntUhZirlH-77" style="rounded=0;orthogonalLoop=1;jettySize=auto;html=1;exitX=0;exitY=1;exitDx=0;exitDy=0;entryX=0.5;entryY=0;entryDx=0;entryDy=0;" parent="1" target="zLXZKZK0PCTntUhZirlH-74" edge="1">
          <mxGeometry relative="1" as="geometry">
            <mxPoint x="517.5735931288073" y="858.2842712474617" as="sourcePoint" />
          </mxGeometry>
        </mxCell>
        <mxCell id="zLXZKZK0PCTntUhZirlH-62" value="&lt;b&gt;&lt;font style=&quot;font-size: 20px;&quot;&gt;Art Name&lt;/font&gt;&lt;/b&gt;" style="ellipse;whiteSpace=wrap;html=1;" parent="1" vertex="1">
          <mxGeometry x="690" y="800" width="120" height="80" as="geometry" />
        </mxCell>
        <mxCell id="zLXZKZK0PCTntUhZirlH-63" value="&lt;b&gt;&lt;font style=&quot;font-size: 20px;&quot;&gt;Art id&lt;/font&gt;&lt;/b&gt;" style="ellipse;whiteSpace=wrap;html=1;" parent="1" vertex="1">
          <mxGeometry x="690" y="630" width="120" height="80" as="geometry" />
        </mxCell>
        <mxCell id="zLXZKZK0PCTntUhZirlH-64" value="&lt;b&gt;&lt;font style=&quot;font-size: 20px;&quot;&gt;Price&lt;/font&gt;&lt;/b&gt;" style="ellipse;whiteSpace=wrap;html=1;" parent="1" vertex="1">
          <mxGeometry x="570" y="900" width="120" height="80" as="geometry" />
        </mxCell>
        <mxCell id="zLXZKZK0PCTntUhZirlH-66" value="&lt;b&gt;&lt;font style=&quot;font-size: 20px;&quot;&gt;Art Images&lt;/font&gt;&lt;/b&gt;" style="ellipse;whiteSpace=wrap;html=1;" parent="1" vertex="1">
          <mxGeometry x="710" y="890" width="120" height="80" as="geometry" />
        </mxCell>
        <mxCell id="zLXZKZK0PCTntUhZirlH-71" style="rounded=0;orthogonalLoop=1;jettySize=auto;html=1;exitX=1;exitY=0;exitDx=0;exitDy=0;entryX=0.083;entryY=0.863;entryDx=0;entryDy=0;entryPerimeter=0;" parent="1" target="zLXZKZK0PCTntUhZirlH-63" edge="1">
          <mxGeometry relative="1" as="geometry">
            <mxPoint x="602.4264068711927" y="801.7157287525379" as="sourcePoint" />
          </mxGeometry>
        </mxCell>
        <mxCell id="zLXZKZK0PCTntUhZirlH-124" style="edgeStyle=orthogonalEdgeStyle;rounded=0;orthogonalLoop=1;jettySize=auto;html=1;exitX=0.5;exitY=1;exitDx=0;exitDy=0;entryX=0;entryY=0.5;entryDx=0;entryDy=0;" parent="1" source="zLXZKZK0PCTntUhZirlH-74" target="zLXZKZK0PCTntUhZirlH-123" edge="1">
          <mxGeometry relative="1" as="geometry" />
        </mxCell>
        <mxCell id="zLXZKZK0PCTntUhZirlH-74" value="&lt;font style=&quot;font-size: 20px;&quot;&gt;Has&lt;/font&gt;" style="rhombus;whiteSpace=wrap;html=1;" parent="1" vertex="1">
          <mxGeometry x="385" y="960" width="120" height="100" as="geometry" />
        </mxCell>
        <mxCell id="zLXZKZK0PCTntUhZirlH-84" style="rounded=0;orthogonalLoop=1;jettySize=auto;html=1;exitX=1;exitY=1;exitDx=0;exitDy=0;" parent="1" source="zLXZKZK0PCTntUhZirlH-82" target="zLXZKZK0PCTntUhZirlH-66" edge="1">
          <mxGeometry relative="1" as="geometry" />
        </mxCell>
        <mxCell id="zLXZKZK0PCTntUhZirlH-85" style="rounded=0;orthogonalLoop=1;jettySize=auto;html=1;exitX=1;exitY=0.5;exitDx=0;exitDy=0;" parent="1" source="zLXZKZK0PCTntUhZirlH-82" target="zLXZKZK0PCTntUhZirlH-62" edge="1">
          <mxGeometry relative="1" as="geometry" />
        </mxCell>
        <mxCell id="zLXZKZK0PCTntUhZirlH-82" value="&lt;span style=&quot;font-size: 20px;&quot;&gt;&lt;b&gt;Cart&lt;/b&gt;&lt;/span&gt;" style="rounded=1;whiteSpace=wrap;html=1;" parent="1" vertex="1">
          <mxGeometry x="460" y="780" width="140" height="80" as="geometry" />
        </mxCell>
        <mxCell id="zLXZKZK0PCTntUhZirlH-83" style="rounded=0;orthogonalLoop=1;jettySize=auto;html=1;exitX=0.5;exitY=1;exitDx=0;exitDy=0;entryX=0.25;entryY=0;entryDx=0;entryDy=0;entryPerimeter=0;" parent="1" source="zLXZKZK0PCTntUhZirlH-82" target="zLXZKZK0PCTntUhZirlH-64" edge="1">
          <mxGeometry relative="1" as="geometry" />
        </mxCell>
        <mxCell id="zLXZKZK0PCTntUhZirlH-98" style="edgeStyle=orthogonalEdgeStyle;rounded=0;orthogonalLoop=1;jettySize=auto;html=1;exitX=0.5;exitY=1;exitDx=0;exitDy=0;" parent="1" source="zLXZKZK0PCTntUhZirlH-93" target="zLXZKZK0PCTntUhZirlH-97" edge="1">
          <mxGeometry relative="1" as="geometry" />
        </mxCell>
        <mxCell id="zLXZKZK0PCTntUhZirlH-93" value="&lt;span style=&quot;font-size: 20px;&quot;&gt;&lt;b&gt;Artist/Seller&lt;/b&gt;&lt;/span&gt;" style="rounded=1;whiteSpace=wrap;html=1;" parent="1" vertex="1">
          <mxGeometry x="160" y="860" width="140" height="80" as="geometry" />
        </mxCell>
        <mxCell id="zLXZKZK0PCTntUhZirlH-94" value="&lt;font style=&quot;font-size: 20px;&quot;&gt;Adds&lt;/font&gt;" style="rhombus;whiteSpace=wrap;html=1;" parent="1" vertex="1">
          <mxGeometry x="170" y="690" width="120" height="100" as="geometry" />
        </mxCell>
        <mxCell id="zLXZKZK0PCTntUhZirlH-95" style="rounded=0;orthogonalLoop=1;jettySize=auto;html=1;exitX=0.5;exitY=0;exitDx=0;exitDy=0;entryX=0.5;entryY=1;entryDx=0;entryDy=0;" parent="1" source="zLXZKZK0PCTntUhZirlH-93" target="zLXZKZK0PCTntUhZirlH-94" edge="1">
          <mxGeometry relative="1" as="geometry" />
        </mxCell>
        <mxCell id="zLXZKZK0PCTntUhZirlH-100" style="edgeStyle=orthogonalEdgeStyle;rounded=0;orthogonalLoop=1;jettySize=auto;html=1;exitX=1;exitY=0.5;exitDx=0;exitDy=0;entryX=0;entryY=0.5;entryDx=0;entryDy=0;" parent="1" source="zLXZKZK0PCTntUhZirlH-97" target="zLXZKZK0PCTntUhZirlH-99" edge="1">
          <mxGeometry relative="1" as="geometry" />
        </mxCell>
        <mxCell id="zLXZKZK0PCTntUhZirlH-108" style="edgeStyle=orthogonalEdgeStyle;rounded=0;orthogonalLoop=1;jettySize=auto;html=1;exitX=0.5;exitY=1;exitDx=0;exitDy=0;entryX=0.5;entryY=0;entryDx=0;entryDy=0;" parent="1" source="zLXZKZK0PCTntUhZirlH-97" target="zLXZKZK0PCTntUhZirlH-107" edge="1">
          <mxGeometry relative="1" as="geometry" />
        </mxCell>
        <mxCell id="zLXZKZK0PCTntUhZirlH-110" style="rounded=0;orthogonalLoop=1;jettySize=auto;html=1;exitX=1;exitY=1;exitDx=0;exitDy=0;entryX=0.5;entryY=0;entryDx=0;entryDy=0;" parent="1" source="zLXZKZK0PCTntUhZirlH-97" target="zLXZKZK0PCTntUhZirlH-109" edge="1">
          <mxGeometry relative="1" as="geometry" />
        </mxCell>
        <mxCell id="zLXZKZK0PCTntUhZirlH-97" value="&lt;font style=&quot;font-size: 20px;&quot;&gt;has&lt;/font&gt;" style="rhombus;whiteSpace=wrap;html=1;" parent="1" vertex="1">
          <mxGeometry x="30" y="1210" width="120" height="100" as="geometry" />
        </mxCell>
        <mxCell id="zLXZKZK0PCTntUhZirlH-106" style="edgeStyle=orthogonalEdgeStyle;rounded=0;orthogonalLoop=1;jettySize=auto;html=1;exitX=1;exitY=0.5;exitDx=0;exitDy=0;entryX=0;entryY=0.5;entryDx=0;entryDy=0;" parent="1" source="zLXZKZK0PCTntUhZirlH-99" target="zLXZKZK0PCTntUhZirlH-103" edge="1">
          <mxGeometry relative="1" as="geometry" />
        </mxCell>
        <mxCell id="zLXZKZK0PCTntUhZirlH-99" value="&lt;span style=&quot;font-size: 20px;&quot;&gt;&lt;b&gt;Profile Page&lt;/b&gt;&lt;/span&gt;" style="rounded=1;whiteSpace=wrap;html=1;" parent="1" vertex="1">
          <mxGeometry x="215" y="1220" width="140" height="80" as="geometry" />
        </mxCell>
        <mxCell id="zLXZKZK0PCTntUhZirlH-101" value="&lt;b&gt;&lt;font style=&quot;font-size: 20px;&quot;&gt;Id&lt;/font&gt;&lt;/b&gt;" style="ellipse;whiteSpace=wrap;html=1;" parent="1" vertex="1">
          <mxGeometry x="215" y="1120" width="120" height="80" as="geometry" />
        </mxCell>
        <mxCell id="zLXZKZK0PCTntUhZirlH-102" value="&lt;b&gt;&lt;font style=&quot;font-size: 20px;&quot;&gt;Name&lt;/font&gt;&lt;/b&gt;" style="ellipse;whiteSpace=wrap;html=1;" parent="1" vertex="1">
          <mxGeometry x="355" y="1120" width="120" height="80" as="geometry" />
        </mxCell>
        <mxCell id="zLXZKZK0PCTntUhZirlH-103" value="&lt;b&gt;&lt;font style=&quot;font-size: 20px;&quot;&gt;Art Images&lt;/font&gt;&lt;/b&gt;" style="ellipse;whiteSpace=wrap;html=1;" parent="1" vertex="1">
          <mxGeometry x="380" y="1220" width="120" height="80" as="geometry" />
        </mxCell>
        <mxCell id="zLXZKZK0PCTntUhZirlH-104" style="edgeStyle=orthogonalEdgeStyle;rounded=0;orthogonalLoop=1;jettySize=auto;html=1;exitX=0.5;exitY=0;exitDx=0;exitDy=0;entryX=0.575;entryY=1.038;entryDx=0;entryDy=0;entryPerimeter=0;" parent="1" source="zLXZKZK0PCTntUhZirlH-99" target="zLXZKZK0PCTntUhZirlH-101" edge="1">
          <mxGeometry relative="1" as="geometry" />
        </mxCell>
        <mxCell id="zLXZKZK0PCTntUhZirlH-105" style="rounded=0;orthogonalLoop=1;jettySize=auto;html=1;exitX=1;exitY=0;exitDx=0;exitDy=0;entryX=0.292;entryY=1;entryDx=0;entryDy=0;entryPerimeter=0;" parent="1" source="zLXZKZK0PCTntUhZirlH-99" target="zLXZKZK0PCTntUhZirlH-102" edge="1">
          <mxGeometry relative="1" as="geometry" />
        </mxCell>
        <mxCell id="zLXZKZK0PCTntUhZirlH-107" value="&lt;span style=&quot;font-size: 20px;&quot;&gt;&lt;b&gt;Login&lt;/b&gt;&lt;/span&gt;" style="rounded=1;whiteSpace=wrap;html=1;" parent="1" vertex="1">
          <mxGeometry x="50" y="1390" width="140" height="80" as="geometry" />
        </mxCell>
        <mxCell id="zLXZKZK0PCTntUhZirlH-118" style="edgeStyle=orthogonalEdgeStyle;rounded=0;orthogonalLoop=1;jettySize=auto;html=1;exitX=1;exitY=0.5;exitDx=0;exitDy=0;entryX=0;entryY=0.5;entryDx=0;entryDy=0;" parent="1" source="zLXZKZK0PCTntUhZirlH-109" target="zLXZKZK0PCTntUhZirlH-115" edge="1">
          <mxGeometry relative="1" as="geometry" />
        </mxCell>
        <mxCell id="zLXZKZK0PCTntUhZirlH-122" style="edgeStyle=orthogonalEdgeStyle;rounded=0;orthogonalLoop=1;jettySize=auto;html=1;exitX=1;exitY=0.25;exitDx=0;exitDy=0;entryX=0.5;entryY=1;entryDx=0;entryDy=0;" parent="1" source="zLXZKZK0PCTntUhZirlH-109" target="zLXZKZK0PCTntUhZirlH-121" edge="1">
          <mxGeometry relative="1" as="geometry" />
        </mxCell>
        <mxCell id="zLXZKZK0PCTntUhZirlH-109" value="&lt;font style=&quot;font-size: 20px;&quot;&gt;&lt;b&gt;SignUp&lt;/b&gt;&lt;/font&gt;" style="rounded=1;whiteSpace=wrap;html=1;" parent="1" vertex="1">
          <mxGeometry x="250" y="1390" width="140" height="80" as="geometry" />
        </mxCell>
        <mxCell id="zLXZKZK0PCTntUhZirlH-111" value="&lt;b&gt;&lt;font style=&quot;font-size: 20px;&quot;&gt;userid&lt;/font&gt;&lt;/b&gt;" style="ellipse;whiteSpace=wrap;html=1;" parent="1" vertex="1">
          <mxGeometry y="1500" width="120" height="80" as="geometry" />
        </mxCell>
        <mxCell id="zLXZKZK0PCTntUhZirlH-112" value="&lt;b&gt;&lt;font style=&quot;font-size: 20px;&quot;&gt;Password&lt;/font&gt;&lt;/b&gt;" style="ellipse;whiteSpace=wrap;html=1;" parent="1" vertex="1">
          <mxGeometry x="130" y="1500" width="120" height="80" as="geometry" />
        </mxCell>
        <mxCell id="zLXZKZK0PCTntUhZirlH-113" style="edgeStyle=orthogonalEdgeStyle;rounded=0;orthogonalLoop=1;jettySize=auto;html=1;exitX=0.5;exitY=1;exitDx=0;exitDy=0;entryX=0.583;entryY=-0.05;entryDx=0;entryDy=0;entryPerimeter=0;" parent="1" source="zLXZKZK0PCTntUhZirlH-107" target="zLXZKZK0PCTntUhZirlH-111" edge="1">
          <mxGeometry relative="1" as="geometry" />
        </mxCell>
        <mxCell id="zLXZKZK0PCTntUhZirlH-114" style="edgeStyle=orthogonalEdgeStyle;rounded=0;orthogonalLoop=1;jettySize=auto;html=1;exitX=0.75;exitY=1;exitDx=0;exitDy=0;entryX=0.583;entryY=-0.025;entryDx=0;entryDy=0;entryPerimeter=0;" parent="1" source="zLXZKZK0PCTntUhZirlH-107" target="zLXZKZK0PCTntUhZirlH-112" edge="1">
          <mxGeometry relative="1" as="geometry" />
        </mxCell>
        <mxCell id="zLXZKZK0PCTntUhZirlH-115" value="&lt;b&gt;&lt;font style=&quot;font-size: 20px;&quot;&gt;Name&lt;/font&gt;&lt;/b&gt;" style="ellipse;whiteSpace=wrap;html=1;" parent="1" vertex="1">
          <mxGeometry x="425" y="1390" width="120" height="80" as="geometry" />
        </mxCell>
        <mxCell id="zLXZKZK0PCTntUhZirlH-116" value="&lt;b&gt;&lt;font style=&quot;font-size: 20px;&quot;&gt;Email&lt;/font&gt;&lt;/b&gt;" style="ellipse;whiteSpace=wrap;html=1;" parent="1" vertex="1">
          <mxGeometry x="425" y="1480" width="120" height="80" as="geometry" />
        </mxCell>
        <mxCell id="zLXZKZK0PCTntUhZirlH-117" value="&lt;b&gt;&lt;font style=&quot;font-size: 20px;&quot;&gt;userid&lt;/font&gt;&lt;/b&gt;" style="ellipse;whiteSpace=wrap;html=1;" parent="1" vertex="1">
          <mxGeometry x="290" y="1500" width="120" height="80" as="geometry" />
        </mxCell>
        <mxCell id="zLXZKZK0PCTntUhZirlH-119" style="edgeStyle=orthogonalEdgeStyle;rounded=0;orthogonalLoop=1;jettySize=auto;html=1;exitX=0.5;exitY=1;exitDx=0;exitDy=0;entryX=0.4;entryY=-0.037;entryDx=0;entryDy=0;entryPerimeter=0;" parent="1" source="zLXZKZK0PCTntUhZirlH-109" target="zLXZKZK0PCTntUhZirlH-117" edge="1">
          <mxGeometry relative="1" as="geometry" />
        </mxCell>
        <mxCell id="zLXZKZK0PCTntUhZirlH-120" style="rounded=0;orthogonalLoop=1;jettySize=auto;html=1;exitX=1;exitY=1;exitDx=0;exitDy=0;entryX=0.067;entryY=0.138;entryDx=0;entryDy=0;entryPerimeter=0;" parent="1" source="zLXZKZK0PCTntUhZirlH-109" target="zLXZKZK0PCTntUhZirlH-116" edge="1">
          <mxGeometry relative="1" as="geometry" />
        </mxCell>
        <mxCell id="zLXZKZK0PCTntUhZirlH-121" value="&lt;b&gt;&lt;font style=&quot;font-size: 20px;&quot;&gt;Password&lt;/font&gt;&lt;/b&gt;" style="ellipse;whiteSpace=wrap;html=1;" parent="1" vertex="1">
          <mxGeometry x="355" y="1310" width="120" height="80" as="geometry" />
        </mxCell>
        <mxCell id="zLXZKZK0PCTntUhZirlH-123" value="&lt;span style=&quot;font-size: 20px;&quot;&gt;&lt;b&gt;Payment&lt;/b&gt;&lt;/span&gt;" style="rounded=1;whiteSpace=wrap;html=1;" parent="1" vertex="1">
          <mxGeometry x="690" y="1010" width="140" height="80" as="geometry" />
        </mxCell>
        <mxCell id="_JKKKagILbteElfu7zYW-1" value="" style="endArrow=classic;html=1;rounded=0;entryX=1;entryY=1;entryDx=0;entryDy=0;exitX=0;exitY=0.75;exitDx=0;exitDy=0;" edge="1" parent="1" source="zLXZKZK0PCTntUhZirlH-37" target="zLXZKZK0PCTntUhZirlH-50">
          <mxGeometry width="50" height="50" relative="1" as="geometry">
            <mxPoint x="280" y="550" as="sourcePoint" />
            <mxPoint x="510" y="430" as="targetPoint" />
          </mxGeometry>
        </mxCell>
        <mxCell id="_JKKKagILbteElfu7zYW-2" value="" style="endArrow=classic;html=1;rounded=0;entryX=0;entryY=1;entryDx=0;entryDy=0;" edge="1" parent="1" target="zLXZKZK0PCTntUhZirlH-37">
          <mxGeometry width="50" height="50" relative="1" as="geometry">
            <mxPoint x="130" y="676" as="sourcePoint" />
            <mxPoint x="180" y="626" as="targetPoint" />
          </mxGeometry>
        </mxCell>
      </root>
    </mxGraphModel>
  </diagram>
</mxfile>
